# xmcd
#
# Track frame offsets:
#	150
#	17539
#	40620
#	61708
#	83449
#	100186
#	121954
#	143495
#	160392
#	178226
#	196806
#	217365
#	235154
#	250948
#	265769
#	292582
#	310647
#
# Disc length: 4403 seconds
#
# Revision: 0
# Processed by: cddbd v1.5.2PL0 Copyright (c) Steve Scherf et al.
# Submitted via: audiograbber 1.83.01
#
DISCID=d8113111
DTITLE=Glen, Marla - The best of
DYEAR=1998
DGENRE=Blues
TTITLE0=The cost of freedom
TTITLE1=Believer
TTITLE2=Personal
TTITLE3=Travel
TTITLE4=You hurt me
TTITLE5=Also love you
TTITLE6=Love and respect
TTITLE7=What about our kids
TTITLE8=Not really easy
TTITLE9=Promises
TTITLE10=Hot love
TTITLE11=Our world
TTITLE12=Movin'
TTITLE13=It's a man's man's man's world
TTITLE14=Ain't that a shame (Acoustic version)
TTITLE15=Not really easy (Acoustic version)
TTITLE16=Center of a star (Acoustic version)
EXTD=
EXTT0=
EXTT1=
EXTT2=
EXTT3=
EXTT4=
EXTT5=
EXTT6=
EXTT7=
EXTT8=
EXTT9=
EXTT10=
EXTT11=
EXTT12=
EXTT13=
EXTT14=
EXTT15=
EXTT16=
PLAYORDER=
